HIERARCHY
ROOT Hips
{
	OFFSET 0.000000 0.000000 0.000000
	CHANNELS 6 Xposition Yposition Zposition Xrotation Yrotation Zrotation
	JOINT LeftUpLeg_virtual
	{
		OFFSET 0.000000 0.000000 0.000000
		CHANNELS 3 Xrotation Yrotation Zrotation
		JOINT LeftUpLeg
		{
			OFFSET 11.394100 -6.187798 -0.413800
			CHANNELS 3 Xrotation Yrotation Zrotation
			JOINT LeftLeg
			{
				OFFSET 0.430247 -32.302673 3.732800
				CHANNELS 3 Xrotation Yrotation Zrotation
				JOINT LeftFoot
				{
					OFFSET -0.430247 -48.264931 -6.423300
					CHANNELS 3 Xrotation Yrotation Zrotation
					JOINT LeftToeBase
					{
						OFFSET 4.230900 -16.068199 23.438400
						CHANNELS 3 Xrotation Yrotation Zrotation
						JOINT LeftToe_End
						{
							OFFSET 4.510700 0.695400 19.974600
							CHANNELS 3 Xrotation Yrotation Zrotation
							End Site
							{
								OFFSET 0 0 0
							}
						}
					}
				}
			}
		}
	}
	JOINT RightUpLeg_virtual
	{
		OFFSET 0.000000 0.000000 0.000000
		CHANNELS 3 Xrotation Yrotation Zrotation
		JOINT RightUpLeg
		{
			OFFSET -11.333700 -6.187798 -0.413800
			CHANNELS 3 Xrotation Yrotation Zrotation
			JOINT RightLeg
			{
				OFFSET -0.430392 -32.302628 3.733000
				CHANNELS 3 Xrotation Yrotation Zrotation
				JOINT RightFoot
				{
					OFFSET 0.430392 -48.264973 -6.423500
					CHANNELS 3 Xrotation Yrotation Zrotation
					JOINT RightToeBase
					{
						OFFSET -4.230900 -16.068199 23.438400
						CHANNELS 3 Xrotation Yrotation Zrotation
						JOINT RightToe_End
						{
							OFFSET -4.510700 0.695400 19.974600
							CHANNELS 3 Xrotation Yrotation Zrotation
							End Site
							{
								OFFSET 0 0 0
							}
						}
					}
				}
			}
		}
	}
	JOINT Spine_virtual
	{
		OFFSET 0.000000 0.000000 0.000000
		CHANNELS 3 Xrotation Yrotation Zrotation
		JOINT Spine
		{
			OFFSET -0.002400 12.777504 0.315300
			CHANNELS 3 Xrotation Yrotation Zrotation
			JOINT Spine1
			{
				OFFSET -0.002067 5.816869 0.032633
				CHANNELS 3 Xrotation Yrotation Zrotation
				JOINT Spine1_split
				{
					OFFSET -0.002067 5.816869 0.032633
					CHANNELS 3 Xrotation Yrotation Zrotation
					JOINT Spine2
					{
						OFFSET -0.002067 5.816869 0.032633
						CHANNELS 3 Xrotation Yrotation Zrotation
						JOINT Neck_virtual
						{
							OFFSET 0.000000 0.000000 0.000000
							CHANNELS 3 Xrotation Yrotation Zrotation
							JOINT Neck
							{
								OFFSET -0.003700 21.199493 -0.826900
								CHANNELS 3 Xrotation Yrotation Zrotation
								JOINT Head
								{
									OFFSET 0.000000 20.442200 4.834800
									CHANNELS 3 Xrotation Yrotation Zrotation
									JOINT HeadTop_End
									{
										OFFSET 0.000000 34.668396 4.968400
										CHANNELS 3 Xrotation Yrotation Zrotation
										End Site
										{
											OFFSET 0 0 0
										}
									}
								}
							}
						}
						JOINT LeftShoulder_virtual
						{
							OFFSET 0.000000 0.000000 0.000000
							CHANNELS 3 Xrotation Yrotation Zrotation
							JOINT LeftShoulder
							{
								OFFSET 3.288150 8.794197 -1.372250
								CHANNELS 3 Xrotation Yrotation Zrotation
								JOINT LeftShoulder_split
								{
									OFFSET 3.288150 8.794197 -1.372250
									CHANNELS 3 Xrotation Yrotation Zrotation
									JOINT LeftArm
									{
										OFFSET 11.953299 -2.279007 -0.146200
										CHANNELS 3 Xrotation Yrotation Zrotation
										JOINT LeftForeArm
										{
											OFFSET 18.448900 0.000000 0.000000
											CHANNELS 3 Xrotation Yrotation Zrotation
											JOINT LeftHand
											{
												OFFSET 29.527798 0.000000 0.000000
												CHANNELS 3 Xrotation Yrotation Zrotation
												End Site
												{
													OFFSET 0 0 0
												}
											}
										}
									}
								}
							}
						}
						JOINT RightShoulder_virtual
						{
							OFFSET 0.000000 0.000000 0.000000
							CHANNELS 3 Xrotation Yrotation Zrotation
							JOINT RightShoulder
							{
								OFFSET -3.249400 8.794197 -1.372250
								CHANNELS 3 Xrotation Yrotation Zrotation
								JOINT RightShoulder_split
								{
									OFFSET -3.249400 8.794197 -1.372250
									CHANNELS 3 Xrotation Yrotation Zrotation
									JOINT RightArm
									{
										OFFSET -11.953299 -2.279007 -0.146200
										CHANNELS 3 Xrotation Yrotation Zrotation
										JOINT RightForeArm
										{
											OFFSET -18.448900 0.000000 0.000000
											CHANNELS 3 Xrotation Yrotation Zrotation
											JOINT RightHand
											{
												OFFSET -29.527802 0.000000 0.000000
												CHANNELS 3 Xrotation Yrotation Zrotation
												End Site
												{
													OFFSET 0 0 0
												}
											}
										}
									}
								}
							}
						}
					}
				}
			}
		}
	}
}
MOTION
Frames: 8
Frame Time: 0.03333333
0.311607 103.501060 -5.252186 0.000000 0.000000 0.000000 37.013632 -11.876065 1.242175 -89.747627 0.955743 24.135027 89.541690 -4.991318 -3.072644 18.442532 -17.265837 -3.900201 7.822133 -0.701878 1.139774 0.000000 0.000000 0.000000 32.118493 -17.421514 3.942792 -47.984019 -3.234252 1.175543 29.930599 0.787615 -5.406672 3.648635 -7.963715 -10.395346 -25.777890 4.304482 -2.182607 0.000000 0.000000 0.000000 38.798596 -7.471779 1.538692 16.696688 0.976182 -7.901258 -5.878305 1.660275 1.172168 1.527211 0.283595 -0.160066 0.000000 0.000000 0.000000 -9.125661 -1.371472 3.685441 -0.773508 6.962619 -1.608713 -22.445386 11.051050 -6.872596 0.000000 0.000000 0.000000 -8.890054 -0.697197 2.783064 2.541537 -5.247030 11.020078 -1.362793 -8.115743 -4.975205 -66.702357 -3.293273 -24.202623 174.600740 -78.092039 175.299564 0.000000 0.000000 0.000000 -8.523582 -1.310753 4.283591 5.310239 15.202131 0.744651 -3.946706 2.042036 3.118364 -14.773993 1.551339 47.754572 -0.628046 68.584846 -3.366817 0.000000 0.000000 0.000000 
-1.372337 102.861816 7.639050 0.000000 0.000000 0.000000 33.225595 -12.967994 0.763610 -93.219112 2.568495 25.403816 76.004515 -1.546257 -4.857234 17.505078 -16.052992 -3.740372 7.439540 -0.662316 1.444545 0.000000 0.000000 0.000000 30.550357 -21.522291 4.885972 -40.311783 -1.867905 -0.562938 28.328787 0.739620 -5.429718 7.942822 -6.165470 -3.784612 -31.258982 3.747828 -2.010363 0.000000 0.000000 0.000000 37.617888 -7.951957 1.243943 17.170214 2.572383 -8.094746 -6.009833 2.111157 1.336767 0.188836 1.983041 -0.674222 0.000000 0.000000 0.000000 -8.445981 -0.941093 3.833647 -1.079684 6.789003 -1.515488 -22.094446 10.575529 -6.452887 0.000000 0.000000 0.000000 -8.442524 -0.155393 3.223280 2.190465 -3.708658 9.840225 1.154317 -6.934682 -4.446984 -63.652589 -0.797815 -24.363782 164.552849 -78.404001 165.062190 0.000000 0.000000 0.000000 -8.719518 -0.749843 4.106346 5.216450 17.266988 0.228944 -4.508880 1.897773 0.627897 -18.779185 8.481321 46.523755 4.218420 74.877206 -8.574804 0.000000 0.000000 0.000000 
-3.205071 101.819351 22.761992 0.000000 0.000000 0.000000 29.754923 -14.317688 1.344014 -93.688571 3.722241 24.135867 61.729057 3.057530 -4.725241 17.622407 -13.159484 -3.203378 6.475760 -0.826131 1.521454 0.000000 0.000000 0.000000 29.190183 -21.607401 4.959742 -24.895915 0.781945 -2.500264 25.090131 -0.447593 -6.041214 10.077990 -4.146403 1.660683 -28.151332 2.820745 -0.759940 0.000000 0.000000 0.000000 34.448175 -7.942469 0.866318 18.704603 5.258457 -9.174132 -5.600039 2.827282 1.606233 -0.360350 1.596295 0.605796 0.000000 0.000000 0.000000 -7.126210 -0.011373 4.107974 -2.561315 5.765400 -1.008037 -21.750232 8.737420 -6.552716 0.000000 0.000000 0.000000 -7.578293 0.854349 3.671809 1.723597 -1.671669 6.838219 2.929002 -5.337138 -2.613685 -58.346263 3.562165 -24.855405 144.221521 -75.696787 144.707898 0.000000 0.000000 0.000000 -8.131261 0.282741 3.811583 5.104313 19.934698 0.442007 -3.934492 0.739783 -1.555406 -22.669476 15.328877 43.665143 16.998589 78.446690 -21.854900 0.000000 0.000000 0.000000 
-4.514430 100.061417 36.879372 0.000000 0.000000 0.000000 26.678714 -13.866739 2.471484 -90.800712 4.689706 20.400320 50.563556 6.970960 -2.540828 17.034794 -9.374387 -2.241358 6.657889 -1.162111 1.667438 0.000000 0.000000 0.000000 28.684810 -18.011122 4.547335 -8.128776 2.886920 -4.658138 22.736597 -2.391187 -7.229117 9.701215 -3.047214 4.630578 -18.834996 2.337588 0.558109 0.000000 0.000000 0.000000 29.656528 -6.769993 0.615968 21.375688 8.166671 -10.869365 -4.784589 3.441061 1.895164 1.448734 -1.024444 3.269203 0.000000 0.000000 0.000000 -5.626677 0.954591 4.433491 -5.091708 4.325892 -0.161590 -21.483836 6.349790 -7.108677 0.000000 0.000000 0.000000 -6.651723 1.793991 3.886926 1.423539 0.230549 2.455327 4.979622 -3.761932 -0.793460 -50.833809 8.921188 -26.884342 131.998132 -69.059845 132.474811 0.000000 0.000000 0.000000 -6.925980 1.234727 3.436625 4.746666 22.406545 2.200270 -3.158097 -0.730111 -3.274959 -24.159042 18.761432 39.626777 30.967641 78.622130 -36.438878 0.000000 0.000000 0.000000 
-5.239565 97.971443 49.580631 0.000000 0.000000 0.000000 23.530859 -11.149022 3.713106 -85.302048 5.405751 14.855258 42.980075 8.754024 0.871438 15.103379 -6.395910 -1.430354 6.906648 -1.434118 2.080975 0.000000 0.000000 0.000000 28.376528 -12.272747 4.043806 2.320636 3.583896 -6.712296 27.280134 -3.807600 -8.069247 9.332926 -2.144112 6.178987 -8.990023 2.641052 1.308848 0.000000 0.000000 0.000000 24.541988 -4.139684 1.068879 24.963954 10.335762 -12.611382 -3.724167 3.616769 1.971795 2.923134 -3.396927 4.822370 0.000000 0.000000 0.000000 -4.327343 1.319056 4.672441 -8.412735 2.667190 0.872791 -21.101567 3.871407 -7.899431 0.000000 0.000000 0.000000 -5.881534 2.093165 3.683024 1.336996 1.081293 -2.661252 7.882960 -1.887051 0.657105 -40.932248 13.928049 -31.227628 129.074238 -60.899292 129.466208 0.000000 0.000000 0.000000 -5.493054 1.527522 2.993374 4.042713 23.691852 5.731557 -3.586686 -1.787633 -4.219411 -22.186155 16.996504 35.605889 38.893966 77.584542 -44.996381 0.000000 0.000000 0.000000 
-5.213181 96.049980 60.604485 0.000000 0.000000 0.000000 20.627760 -7.740125 5.125924 -77.197230 5.724413 8.442742 38.257252 7.858564 4.146034 12.122332 -5.081132 -0.757255 3.657360 -1.749233 2.846052 0.000000 0.000000 0.000000 27.340849 -5.127842 3.663799 2.129983 3.348363 -8.485172 42.070434 -4.211248 -8.133826 11.154116 -0.549150 7.936582 -3.382840 3.253221 1.186902 0.000000 0.000000 0.000000 19.515360 -1.391745 2.918051 29.120201 11.147555 -13.823854 -2.597560 3.003001 1.720997 2.985004 -4.950675 4.004874 0.000000 0.000000 0.000000 -3.529602 0.737426 4.666856 -12.006905 1.013272 1.907720 -19.800836 2.398101 -8.271541 0.000000 0.000000 0.000000 -5.283026 1.441090 3.022663 1.261687 0.546031 -7.558925 11.025711 0.253716 1.460371 -30.639494 16.426339 -37.484655 131.219627 -53.488673 131.323255 0.000000 0.000000 0.000000 -4.333945 0.831308 2.539549 3.172234 22.850534 10.274834 -4.893136 -2.648463 -4.073614 -16.612463 10.233010 33.209998 42.433684 77.438629 -48.950668 0.000000 0.000000 0.000000 
-4.720470 94.503662 70.878014 0.000000 0.000000 0.000000 17.849579 -4.094434 6.267905 -67.416084 5.484628 2.405132 35.770677 5.607053 6.300477 8.933083 -4.819670 -1.671675 -2.369466 -1.854466 3.474494 0.000000 0.000000 0.000000 24.930394 1.730786 3.768950 -8.095021 2.546902 -9.830673 64.326332 -4.088071 -7.110282 14.243437 1.927014 10.024211 -1.791856 3.186358 0.465231 0.000000 0.000000 0.000000 15.036612 0.585259 4.897766 33.099472 10.629753 -13.645542 -1.771460 1.490435 1.345261 2.687824 -4.969143 1.746568 0.000000 0.000000 0.000000 -3.124538 -0.807033 4.301993 -15.662030 -0.507023 2.767721 -17.123837 1.669471 -7.830463 0.000000 0.000000 0.000000 -4.702027 -0.114706 2.209405 1.069078 -1.134374 -11.339063 12.385031 2.426895 0.604943 -21.902863 15.805676 -43.661653 136.087462 -47.994537 135.729355 0.000000 0.000000 0.000000 -3.596890 -0.888238 2.045859 2.159178 19.700641 14.848848 -6.428531 -2.883648 -3.631037 -8.318276 0.738245 33.868999 43.949122 78.816230 -50.742913 0.000000 0.000000 0.000000 
-4.104887 93.817871 81.375763 0.000000 0.000000 0.000000 15.083838 -0.874818 6.693557 -54.360875 5.415228 -2.017262 33.324452 5.201745 6.835406 4.480916 -3.810134 -1.577648 -7.159795 -1.640496 2.492497 0.000000 0.000000 0.000000 20.554083 6.789028 4.227957 -26.494874 1.776854 -10.299798 85.783604 -4.436677 -5.201938 16.671162 3.816961 9.752834 -1.731908 2.293282 -0.015009 0.000000 0.000000 0.000000 12.388103 1.104970 6.237548 35.873950 9.118310 -11.547715 -1.510023 -0.780254 0.869521 1.586655 -4.052632 0.058401 0.000000 0.000000 0.000000 -3.017887 -3.090125 3.555246 -18.746737 -1.837943 3.247584 -12.959986 0.878236 -6.380134 0.000000 0.000000 0.000000 -4.100568 -2.316189 1.477082 0.700440 -3.261854 -13.515259 12.367389 4.182579 -0.820749 -16.731429 12.872999 -47.596265 142.393462 -45.001654 141.442016 0.000000 0.000000 0.000000 -3.028525 -3.217071 1.535946 1.350951 14.348371 18.035410 -7.515336 -1.626156 -3.238321 2.350654 -7.696827 36.920803 41.616121 81.497899 -48.552891 0.000000 0.000000 0.000000 
